<?xml version="1.0" standalone="no"?>
<!DOCTYPE svg PUBLIC "-//W3C//DTD SVG 20010904//EN"
 "http://www.w3.org/TR/2001/REC-SVG-20010904/DTD/svg10.dtd">
<svg version="1.0" xmlns="http://www.w3.org/2000/svg"
 width="512.000000pt" height="512.000000pt" viewBox="0 0 512.000000 512.000000"
 preserveAspectRatio="xMidYMid meet">
<g transform="translate(0.000000,512.000000) scale(0.100000,-0.100000)"
fill="#9F1A1F" stroke="none">
<path d="M2285 4124 c-126 -19 -267 -51 -369 -85 -261 -85 -590 -276 -846
-492 -383 -321 -755 -799 -768 -987 -3 -48 2 -65 37 -138 181 -370 664 -859
1111 -1126 331 -198 628 -292 956 -303 301 -10 548 40 839 170 345 154 737
447 1005 751 258 292 400 532 388 655 -15 151 -235 469 -528 761 -408 409
-843 667 -1294 767 -92 20 -145 25 -306 28 -107 2 -208 1 -225 -1z m401 -439
c462 -87 834 -467 914 -935 17 -97 17 -285 1 -380 -83 -471 -450 -845 -918
-936 -116 -23 -310 -23 -426 0 -464 90 -823 449 -913 913 -23 116 -23 310 0
426 68 354 293 650 614 811 128 64 262 101 432 120 55 6 218 -4 296 -19z"/>
</g>
<g transform="translate(0.000000,512.000000) scale(0.100000,-0.100000)"
fill="#0E0E0C" stroke="none">
<circle cx="2470" cy="2560" r="800" fill="000000" />
</g>
</svg>
