<?xml version="1.0" standalone="no"?>
<!DOCTYPE svg PUBLIC "-//W3C//DTD SVG 20010904//EN"
 "http://www.w3.org/TR/2001/REC-SVG-20010904/DTD/svg10.dtd">
<svg version="1.0" xmlns="http://www.w3.org/2000/svg"
 width="397.000000pt" height="221.000000pt" viewBox="0 0 397.000000 221.000000"
 preserveAspectRatio="xMidYMid meet">
<metadata>
Created by potrace 1.16, written by Peter Selinger 2001-2019
</metadata>
<g transform="translate(0.000000,221.000000) scale(0.100000,-0.100000)"
fill="#3E79A3" stroke="none">
<path d="M1290 2201 c0 -6 134 -191 299 -413 l298 -403 -943 -3 -944 -2 0
-270 0 -270 949 -2 949 -3 -304 -405 c-167 -223 -303 -411 -304 -417 0 -10 74
-13 338 -13 l338 0 408 546 c308 412 407 551 404 567 -2 12 -185 264 -406 560
l-401 537 -341 0 c-206 0 -340 -4 -340 -9z"/>
<path d="M2490 2201 c0 -12 600 -824 727 -984 l94 -118 -69 -82 c-38 -45 -197
-253 -354 -462 -376 -503 -398 -533 -398 -545 0 -6 117 -10 338 -10 l338 0
399 534 c324 433 401 541 403 569 3 33 -28 78 -397 571 l-400 536 -341 0
c-205 0 -340 -4 -340 -9z"/>
</g>
</svg>
