<?xml version="1.0" standalone="no"?>
<!DOCTYPE svg PUBLIC "-//W3C//DTD SVG 20010904//EN"
 "http://www.w3.org/TR/2001/REC-SVG-20010904/DTD/svg10.dtd">
<svg version="1.0" xmlns="http://www.w3.org/2000/svg"
 width="692.000000pt" height="522.000000pt" viewBox="0 0 692.000000 522.000000"
 preserveAspectRatio="xMidYMid meet">
<metadata>
Created by potrace 1.16, written by Peter Selinger 2001-2019
</metadata>
<g transform="translate(0.000000,522.000000) scale(0.100000,-0.100000)"
fill="#3E79A3" stroke="none">
<path d="M1782 5209 c-45 -13 -108 -80 -121 -126 -7 -25 -11 -314 -11 -865 l0
-828 -727 0 c-487 0 -741 -4 -767 -11 -21 -6 -58 -29 -81 -51 -78 -71 -76 -53
-73 -740 l3 -605 30 -48 c22 -36 45 -57 84 -77 l53 -28 739 0 739 0 2 -848 3
-848 27 -41 c40 -61 90 -88 163 -88 l60 0 885 596 885 597 5 -287 c5 -279 6
-287 29 -324 38 -61 92 -92 165 -92 l61 0 1440 969 c792 533 1455 983 1474
1000 42 39 71 99 71 151 0 52 -29 112 -71 151 -19 17 -682 467 -1474 1000
l-1440 969 -60 0 c-73 0 -123 -27 -163 -88 l-27 -40 -5 -293 -5 -292 -885 596
c-809 545 -888 596 -930 598 -25 2 -60 -1 -78 -7z"/>
</g>
</svg>
